<svg xmlns="http://www.w3.org/2000/svg" width="40" height="40" viewBox="0 0 40 40">
  <defs>
    <linearGradient id="gradient" x1="0%" y1="0%" x2="100%" y2="100%">
      <stop offset="0%" stop-color="#3498db" />
      <stop offset="100%" stop-color="#2c3e50" />
    </linearGradient>
  </defs>
  <rect width="40" height="40" rx="8" fill="url(#gradient)" />
  <path d="M10 15h4a2 2 0 0 1 2 2v6a2 2 0 0 1-2 2h-4a2 2 0 0 1-2-2v-6a2 2 0 0 1 2-2zm14 0h4a2 2 0 0 1 2 2v6a2 2 0 0 1-2 2h-4a2 2 0 0 1-2-2v-6a2 2 0 0 1 2-2z" fill="white" />
  <path d="M8 26h24a1 1 0 0 1 1 1v2a1 1 0 0 1-1 1H8a1 1 0 0 1-1-1v-2a1 1 0 0 1 1-1z" fill="white" opacity="0.8" />
  <path d="M18 10h4a1 1 0 0 1 1 1v18a1 1 0 0 1-1 1h-4a1 1 0 0 1-1-1V11a1 1 0 0 1 1-1z" fill="white" />
</svg> 